<?xml version="1.0" standalone="no"?>
<!DOCTYPE svg PUBLIC "-//W3C//DTD SVG 20010904//EN"
 "http://www.w3.org/TR/2001/REC-SVG-20010904/DTD/svg10.dtd">
<svg version="1.0" xmlns="http://www.w3.org/2000/svg"
 width="1024.000000pt" height="1024.000000pt" viewBox="0 0 1024.000000 1024.000000"
 preserveAspectRatio="xMidYMid meet">

<g transform="translate(0.000000,1024.000000) scale(0.100000,-0.100000)"
fill="#000000" stroke="none">
<path d="M4505 7588 c-16 -6 -48 -25 -70 -43 -22 -17 -59 -44 -82 -59 -24 -14
-54 -44 -68 -65 -13 -22 -44 -62 -67 -89 -24 -28 -55 -70 -70 -94 -15 -23 -32
-50 -38 -58 -5 -8 -28 -49 -51 -90 -40 -73 -132 -173 -172 -186 -12 -4 -82 26
-190 79 -185 92 -245 113 -308 104 -63 -8 -161 -79 -218 -156 -27 -36 -58 -75
-69 -87 -11 -11 -32 -40 -47 -64 -15 -24 -31 -48 -36 -54 -25 -30 -129 -195
-129 -205 0 -6 -4 -11 -10 -11 -5 0 -10 -5 -10 -12 0 -6 -11 -26 -25 -44 -14
-18 -25 -35 -25 -38 0 -3 -20 -36 -45 -73 -25 -37 -45 -72 -45 -79 0 -6 -20
-40 -44 -75 -24 -35 -55 -88 -70 -116 -14 -29 -49 -87 -76 -129 -28 -42 -50
-82 -50 -89 0 -7 -7 -19 -17 -26 -9 -8 -25 -34 -36 -59 -24 -55 -111 -201
-149 -251 -15 -20 -28 -41 -28 -46 0 -15 -55 -115 -136 -245 -43 -70 -92 -149
-107 -175 -15 -27 -44 -75 -64 -108 -20 -33 -47 -82 -61 -110 -28 -56 -128
-211 -142 -220 -6 -4 -10 -14 -10 -24 0 -10 -8 -29 -19 -42 -10 -13 -44 -71
-76 -129 -32 -58 -69 -119 -82 -136 -12 -17 -23 -34 -23 -38 0 -4 -18 -34 -40
-66 -22 -32 -40 -62 -40 -66 0 -4 -25 -44 -55 -90 -30 -45 -69 -107 -86 -139
-16 -31 -60 -97 -96 -147 -36 -50 -71 -105 -79 -123 -7 -17 -32 -53 -56 -80
-40 -44 -78 -99 -78 -111 0 -2 64 -3 142 -2 l141 3 34 45 c18 25 77 110 130
190 54 80 100 147 104 150 3 3 16 23 28 45 12 22 37 60 56 85 18 25 53 77 76
115 24 39 62 95 85 125 23 30 76 111 119 180 43 69 105 166 138 215 130 191
159 237 173 270 7 18 32 54 54 80 22 25 40 50 40 54 0 5 15 28 34 53 19 25 49
72 66 104 18 32 42 70 54 84 13 14 43 57 68 95 25 39 72 110 104 158 32 49 68
106 79 127 11 21 35 57 53 81 18 24 120 177 227 339 107 162 211 317 232 344
21 28 54 75 73 107 72 115 160 158 224 108 16 -12 31 -38 37 -65 10 -37 21
-52 69 -88 32 -24 68 -49 80 -56 40 -22 155 -57 170 -53 81 23 145 84 245 233
28 41 52 77 55 80 10 10 42 67 67 120 65 138 80 168 112 220 19 30 50 89 70
131 68 143 165 189 292 137 92 -38 157 -80 314 -207 28 -22 70 -55 95 -72 62
-45 212 -172 246 -210 16 -17 48 -44 71 -60 23 -16 68 -54 100 -85 32 -30 81
-77 108 -103 28 -27 69 -59 92 -72 23 -13 48 -34 54 -46 6 -12 41 -45 78 -74
36 -29 91 -76 122 -104 31 -27 90 -80 130 -116 41 -36 106 -94 144 -128 39
-34 98 -88 132 -119 34 -31 73 -62 85 -69 17 -9 86 -12 251 -13 l227 0 0
-1195 0 -1195 315 0 315 0 0 1195 0 1195 420 0 420 0 0 290 0 290 -1236 0
-1237 0 -44 38 c-24 20 -86 78 -137 127 -230 223 -446 431 -582 560 -82 77
-183 175 -226 218 -44 42 -82 77 -87 77 -4 0 -25 23 -47 50 -23 30 -63 64
-100 85 -33 19 -69 44 -79 55 -18 20 -103 51 -134 49 -9 0 -29 -5 -46 -11z"/>
<path d="M3073 5743 c-22 -32 -55 -85 -73 -118 -18 -33 -41 -69 -51 -80 -9
-11 -29 -41 -43 -66 -14 -26 -44 -73 -66 -105 -22 -33 -66 -97 -98 -142 -31
-46 -80 -123 -109 -170 -29 -48 -56 -91 -60 -97 -33 -40 -114 -158 -134 -195
-13 -25 -36 -63 -52 -85 -15 -22 -44 -65 -64 -95 -21 -30 -40 -57 -44 -60 -4
-3 -22 -32 -40 -65 -17 -33 -45 -78 -61 -100 -72 -101 -178 -263 -178 -272 0
-6 -7 -16 -16 -24 -17 -14 -84 -112 -84 -123 0 -8 -81 -125 -117 -170 -13 -15
-30 -44 -39 -64 -8 -19 -29 -54 -47 -76 -35 -43 -125 -211 -110 -205 17 7 134
139 142 162 5 12 42 60 82 107 40 47 87 108 105 135 17 28 39 57 48 64 9 8 37
44 62 82 25 38 55 76 68 86 12 10 25 25 28 33 3 8 26 40 50 70 25 30 52 69 61
85 8 17 32 48 52 70 20 22 44 54 52 70 9 17 31 47 49 68 19 20 34 42 34 48 0
10 57 91 140 199 14 19 71 102 126 185 54 82 102 154 107 160 24 33 27 -62 27
-852 l0 -833 320 0 320 0 0 909 0 908 46 7 c70 9 70 9 88 -36 10 -24 28 -65
41 -93 14 -27 33 -79 44 -115 51 -164 83 -261 111 -340 18 -47 38 -106 45
-131 7 -25 26 -79 42 -120 17 -41 33 -88 36 -105 3 -17 17 -56 31 -87 l25 -57
269 0 270 0 34 88 c19 48 48 128 63 177 16 50 66 203 112 340 46 138 90 270
98 295 8 25 24 75 37 113 l23 67 77 0 78 0 0 -910 0 -910 320 0 320 0 0 1215
0 1215 -584 0 -583 0 -15 -42 c-104 -289 -140 -394 -159 -453 -11 -38 -32
-101 -45 -138 -13 -38 -24 -77 -24 -88 0 -37 -27 -19 -40 26 -7 25 -16 48 -20
50 -4 3 -22 51 -40 107 -17 57 -37 112 -42 122 -6 11 -27 69 -48 130 -20 61
-52 150 -71 198 l-34 88 -426 0 -426 0 -40 -57z"/>
<path d="M10080 80 l0 -80 80 0 80 0 0 80 0 80 -80 0 -80 0 0 -80z"/>
</g>
</svg>
